<?xml version="1.0" encoding="UTF-8" standalone="no"?>
<!-- Generator: Adobe Illustrator 23.0.2, SVG Export Plug-In . SVG Version: 6.00 Build 0)  -->

<svg
   xmlns:dc="http://purl.org/dc/elements/1.1/"
   xmlns:cc="http://creativecommons.org/ns#"
   xmlns:rdf="http://www.w3.org/1999/02/22-rdf-syntax-ns#"
   xmlns:svg="http://www.w3.org/2000/svg"
   xmlns="http://www.w3.org/2000/svg"
   xmlns:sodipodi="http://sodipodi.sourceforge.net/DTD/sodipodi-0.dtd"
   xmlns:inkscape="http://www.inkscape.org/namespaces/inkscape"
   version="1.1"
   id="Layer_1"
   x="0px"
   y="0px"
   viewBox="0 0 168 63.6"
   style="enable-background:new 0 0 168 63.6;"
   xml:space="preserve"
   sodipodi:docname="grafana_enterprise_typelogo.svg"
   inkscape:version="0.92.4 (5da689c313, 2019-01-14)"><metadata
   id="metadata55"><rdf:RDF><cc:Work
       rdf:about=""><dc:format>image/svg+xml</dc:format><dc:type
         rdf:resource="http://purl.org/dc/dcmitype/StillImage" /></cc:Work></rdf:RDF></metadata><defs
   id="defs53" /><sodipodi:namedview
   pagecolor="#ffffff"
   bordercolor="#666666"
   borderopacity="1"
   objecttolerance="10"
   gridtolerance="10"
   guidetolerance="10"
   inkscape:pageopacity="0"
   inkscape:pageshadow="2"
   inkscape:window-width="640"
   inkscape:window-height="480"
   id="namedview51"
   showgrid="false"
   inkscape:zoom="2.0714286"
   inkscape:cx="84"
   inkscape:cy="31.799999"
   inkscape:window-x="0"
   inkscape:window-y="27"
   inkscape:window-maximized="0"
   inkscape:current-layer="Layer_1" />
<style
   type="text/css"
   id="style2">
	.st0{display:none;}
	.st1{display:inline;fill:#E6E7E8;}
	.st2{fill:#D1D1D1;}
	.st3{font-family:'MyriadPro-Regular';}
	.st4{font-size:36px;}
	.st5{font-size:24px;}
</style>
<g
   class="st0"
   id="g18">
	<path
   class="st1"
   d="M34.1,18.9c-0.4,9.3-7.7,16.6-16.9,16.6c-9.7,0-16.8-7.8-16.8-17.3S8.2,0.9,17.7,0.9c4.3,0,8.5,1.8,12,5.2   l-2.8,3.4c-2.7-2.3-6-4-9.2-4C10.7,5.5,5,11.2,5,18.2c0,7.1,5.4,12.7,12.2,12.7c6.2,0,11-4.5,12-10.3h-14v-4.1h18.9V18.9z"
   id="path4" />
	<path
   class="st1"
   d="M50.2,16.6h-2.6c-2.8,0-5.2,2.3-5.2,5.2v13.4h-4.6v-23h3.8v1.9c1.2-1.2,3.2-1.9,5.4-1.9h5L50.2,16.6z"
   id="path6" />
	<path
   class="st1"
   d="M75.3,35.2h-3.9v-2.9c-3,3-7.8,4.4-12.6,2.3c-3.6-1.6-6.2-4.8-7-8.7c-1.4-7.4,4.4-14,11.7-14   c3.1,0,5.8,1.2,7.9,3.3v-2.9h4L75.3,35.2L75.3,35.2z M70.6,25.4c1.1-4.7-2.5-8.9-7.1-8.9c-4,0-7.2,3.3-7.2,7.2   c0,4.5,3.9,7.9,8.5,7.2C67.6,30.3,69.9,28.2,70.6,25.4z"
   id="path8" />
	<path
   class="st1"
   d="M84.5,10.9v1.3h7.3v4h-7.3v19H80V11.1C80,6,83.6,3,88.2,3h5.5l-1.8,4.3h-3.7C86.1,7.3,84.5,8.9,84.5,10.9z"
   id="path10" />
	<path
   class="st1"
   d="M116.2,35.2h-3.9v-2.9c-3,3-7.8,4.4-12.6,2.3c-3.6-1.6-6.2-4.8-7-8.7c-1.4-7.4,4.4-14,11.7-14   c3.1,0,5.8,1.2,7.9,3.3v-2.9h4L116.2,35.2L116.2,35.2z M111.5,25.4c1.1-4.7-2.5-8.9-7.1-8.9c-4,0-7.2,3.3-7.2,7.2   c0,4.5,3.9,7.9,8.5,7.2C108.6,30.3,110.9,28.2,111.5,25.4z"
   id="path12" />
	<path
   class="st1"
   d="M140.8,21.6v13.6h-4.6V21.6c0-2.9-2.3-5.2-5.2-5.2s-5.2,2.3-5.2,5.2v13.6h-4.6v-23h3.8v2   c1.7-1.5,3.9-2.3,6.2-2.3C136.6,11.8,140.8,16.2,140.8,21.6z"
   id="path14" />
	<path
   class="st1"
   d="M167.9,35.2H164v-2.9c-3,3-7.8,4.4-12.6,2.3c-3.6-1.6-6.2-4.8-7-8.7c-1.4-7.4,4.4-14,11.7-14   c3.1,0,5.8,1.2,7.9,3.3v-2.9h4L167.9,35.2L167.9,35.2z M163.1,25.4c1.1-4.7-2.5-8.9-7.1-8.9c-4,0-7.2,3.3-7.2,7.2   c0,4.5,3.9,7.9,8.5,7.2C160.2,30.3,162.5,28.2,163.1,25.4z"
   id="path16" />
</g>
<g
   class="st0"
   id="g40">
	<path
   class="st1"
   d="M31.7,51.9c0.4,2.4,2.3,4.1,4.5,4.1c1.7,0,3.2-1,4.1-1.9l1.1,1.3c-1.4,1.7-3.4,2.4-5.2,2.4   c-3.8,0-6.4-3.2-6.4-6.6c0-3.6,2.8-6.2,6.2-6.2c3.6,0,6.3,2.8,6.3,7L31.7,51.9L31.7,51.9z M40.5,50.5c-0.3-2.2-2.2-3.9-4.4-3.9   c-2,0-4,1.4-4.4,3.9H40.5z"
   id="path20" />
	<path
   class="st1"
   d="M55.4,50.1v7.5h-1.7v-7.5c0-1.9-1.6-3.5-3.5-3.5s-3.5,1.6-3.5,3.5v7.5H45V45.2h1.5v1.3   c0.9-0.9,2.3-1.5,3.7-1.5C53.1,45,55.4,47.3,55.4,50.1z"
   id="path22" />
	<path
   class="st1"
   d="M58.4,53.5V41.2h1.7v3.9h4.3v1.5h-4.3v6.8c0,1.3,1,2.3,2.3,2.3h2v1.7h-2C60.1,57.6,58.4,55.9,58.4,53.5z"
   id="path24" />
	<path
   class="st1"
   d="M67.6,51.9c0.4,2.4,2.3,4.1,4.5,4.1c1.7,0,3.2-1,4.1-1.9l1.1,1.3c-1.4,1.7-3.4,2.4-5.2,2.4   c-3.8,0-6.4-3.2-6.4-6.6c0-3.6,2.8-6.2,6.2-6.2c3.6,0,6.3,2.8,6.3,7L67.6,51.9L67.6,51.9z M76.4,50.5c-0.3-2.2-2.2-3.9-4.4-3.9   c-2,0-4,1.4-4.4,3.9H76.4z"
   id="path26" />
	<path
   class="st1"
   d="M87.4,46.8h-1.3c-1.9,0-3.4,1.2-3.4,3.1v7.6H81V45.2h1.5v1.3c0.6-0.8,1.9-1.3,3.3-1.3h1.6V46.8z"
   id="path28" />
	<path
   class="st1"
   d="M91.2,55.8v6.8h-1.7V45.2H91v2.1c1.2-1.4,2.9-2.3,4.9-2.3c3.6,0,6.4,2.9,6.4,6.4c0,3.6-2.9,6.4-6.4,6.4   C94.1,57.8,92.4,57,91.2,55.8z M91.2,51.4c0,2.6,2.1,4.7,4.7,4.7s4.7-2.1,4.7-4.7s-2.1-4.6-4.7-4.6C93.3,46.7,91.2,48.8,91.2,51.4z   "
   id="path30" />
	<path
   class="st1"
   d="M111.5,46.8h-1.3c-1.9,0-3.4,1.2-3.4,3.1v7.6H105V45.2h1.5v1.3c0.6-0.8,1.9-1.3,3.3-1.3h1.6L111.5,46.8   L111.5,46.8z"
   id="path32" />
	<path
   class="st1"
   d="M115.8,42.8c0,0.7-0.5,1.1-1.2,1.1c-0.6,0-1.1-0.5-1.1-1.1s0.5-1.1,1.1-1.1C115.3,41.6,115.8,42.2,115.8,42.8z    M115.5,57.6h-1.8V45.2h1.8V57.6z"
   id="path34" />
	<path
   class="st1"
   d="M125.7,46l-0.8,1.3c-0.4-0.3-1.4-0.9-2.6-0.9c-1.3,0-2.4,0.6-2.4,1.7c0,1.1,1.3,1.5,2.5,2c2,0.7,3.8,2.1,3.8,4   c0,2-1.8,3.6-4,3.6c-1.3,0-2.8-0.5-4-1.1l0.7-1.6c0.8,0.5,2,0.9,3.1,0.9c1.6,0,2.4-1,2.4-2c0-1.1-0.9-1.7-2.9-2.4   c-1.4-0.5-3.3-1.3-3.3-3.3s1.7-3.3,4-3.3C123.8,45,124.9,45.5,125.7,46z"
   id="path36" />
	<path
   class="st1"
   d="M130.1,51.9c0.4,2.4,2.3,4.1,4.5,4.1c1.7,0,3.2-1,4.1-1.9l1.1,1.3c-1.4,1.7-3.4,2.4-5.2,2.4   c-3.8,0-6.4-3.2-6.4-6.6c0-3.6,2.8-6.2,6.2-6.2c3.6,0,6.3,2.8,6.3,7L130.1,51.9L130.1,51.9z M138.8,50.5c-0.3-2.2-2.2-3.9-4.4-3.9   c-2,0-4,1.4-4.4,3.9H138.8z"
   id="path38" />
</g>
<text
   id="text48"
   x="15.293997"
   y="30.791599"><tspan
     x="15.293997"
     y="30.791599"
     class="st2 st3 st4"
     id="tspan42"
     style="font-size:36px;font-family:MyriadPro-Regular;fill:#d1d1d1">SEP Co.</tspan><tspan
     x="125.594"
     y="30.791599"
     class="st2 st3 st5"
     id="tspan44"
     style="font-size:24px;font-family:MyriadPro-Regular;fill:#d1d1d1"> </tspan><tspan
     x="10.393996"
     y="59.591599"
     class="st2 st3 st5"
     id="tspan46"
     style="font-size:24px;font-family:MyriadPro-Regular;fill:#d1d1d1">IOT Platform</tspan></text>

</svg>